HIERARCHY
ROOT Hips
{
    OFFSET 0.000000 0.000000 0.000000
    CHANNELS 6 Xposition Yposition Zposition Zrotation Xrotation Yrotation
    JOINT Spine
    {
        OFFSET -0.000000 14.517291 0.000000
        CHANNELS 3 Zrotation Xrotation Yrotation
        JOINT Spine1
        {
            OFFSET -0.000000 37.558300 0.000000
            CHANNELS 3 Zrotation Xrotation Yrotation
            JOINT Neck
            {
                OFFSET -0.000000 37.404057 3.400369
                CHANNELS 3 Zrotation Xrotation Yrotation
                JOINT Head
                {
                    OFFSET -0.000000 24.785618 -3.540803
                    CHANNELS 3 Zrotation Xrotation Yrotation
                    End Site
                    {
                        OFFSET -0.000000 35.408028 0.000000
                    }
                }
            }
            JOINT LeftShoulder
            {
                OFFSET 6.992933 33.973492 -0.192664
                CHANNELS 3 Zrotation Xrotation Yrotation
                JOINT LeftArm
                {
                    OFFSET 21.527611 0.000000 0.000000
                    CHANNELS 3 Zrotation Xrotation Yrotation
                    JOINT LeftForeArm
                    {
                        OFFSET 56.353916 0.000000 0.000000
                        CHANNELS 3 Zrotation Xrotation Yrotation
                        JOINT LeftHand
                        {
                            OFFSET 47.774071 0.000000 0.000000
                            CHANNELS 3 Zrotation Xrotation Yrotation
                            End Site
                            {
                                OFFSET 26.556021 0.000000 0.000000
                            }
                        }
                    }
                }
            }
            JOINT RightShoulder
            {
                OFFSET -7.065357 33.973492 -0.192664
                CHANNELS 3 Zrotation Xrotation Yrotation
                JOINT RightArm
                {
                    OFFSET -21.527611 0.000000 0.000000
                    CHANNELS 3 Zrotation Xrotation Yrotation
                    JOINT RightForeArm
                    {
                        OFFSET -56.353916 0.000000 0.000000
                        CHANNELS 3 Zrotation Xrotation Yrotation
                        JOINT RightHand
                        {
                            OFFSET -47.774071 0.000000 0.000000
                            CHANNELS 3 Zrotation Xrotation Yrotation
                            End Site
                            {
                                OFFSET -26.556021 0.000000 0.000000
                            }
                        }
                    }
                }
            }
        }
    }
    JOINT LeftUpLeg
    {
        OFFSET 17.704014 0.000000 0.000000
        CHANNELS 3 Zrotation Xrotation Yrotation
        JOINT LeftLeg
        {
            OFFSET -0.000000 -81.181816 0.000000
            CHANNELS 3 Zrotation Xrotation Yrotation
            JOINT LeftFoot
            {
                OFFSET -0.000000 -62.821102 0.000000
                CHANNELS 3 Zrotation Xrotation Yrotation
                JOINT LeftToeBase
                {
                    OFFSET -0.000000 -11.507608 26.556021
                    CHANNELS 3 Zrotation Xrotation Yrotation
                    End Site
                    {
                        OFFSET -0.000000 0.000000 7.081605
                    }
                }
            }
        }
    }
    JOINT RightUpLeg
    {
        OFFSET -17.704014 0.000000 0.000000
        CHANNELS 3 Zrotation Xrotation Yrotation
        JOINT RightLeg
        {
            OFFSET -0.000000 -81.181816 0.000000
            CHANNELS 3 Zrotation Xrotation Yrotation
            JOINT RightFoot
            {
                OFFSET -0.000000 -62.821102 0.000000
                CHANNELS 3 Zrotation Xrotation Yrotation
                JOINT RightToeBase
                {
                    OFFSET -0.000000 -11.507608 26.556021
                    CHANNELS 3 Zrotation Xrotation Yrotation
                    End Site
                    {
                        OFFSET -0.000000 0.000000 7.081605
                    }
                }
            }
        }
    }
}
MOTION
Frames:    13
Frame Time:    0.008333
-8.947510    124.300552    -79.084381    -1.418086    -0.144895    41.696911    -1.164324    5.087745    -2.140739    -8.800164    -0.863376    -0.794186    11.804687    -5.079859    -6.666337    9.582864    2.899463    -8.115801    9.567246    3.861755    -24.851103    -24.213591    17.767620    -71.712944    -14.330961    -4.989863    -83.147942    15.220263    -18.516554    -7.617028    -14.170697    -8.279901    -1.591198    24.554214    -28.060013    67.525436    -8.115812    -8.331141    43.439384    -12.592676    -8.385889    29.201344    31.000725    -28.206722    4.205142    -107.463882    73.332581    61.914719    4.985363    -40.992645    34.884632    0.000000    0.000000    0.000000    -38.682152    -41.572300    -30.848644    66.267242    65.506218    -56.516708    -10.158490    -24.388103    -12.773444    0.000000    0.000000    0.000000    
-8.951919    124.331512    -79.042336    -1.449127    -0.163415    41.680893    -1.161259    5.055437    -2.141312    -8.782555    -0.843789    -0.792566    11.780687    -5.104988    -6.664248    9.573052    2.959082    -8.117651    9.539797    3.868866    -24.840881    -24.231152    17.752583    -71.715469    -14.374723    -4.954920    -83.133156    15.210245    -18.516317    -7.609660    -14.197270    -8.266827    -1.588071    24.573610    -28.051760    67.527580    -8.104543    -8.321078    43.449760    -12.593132    -8.381280    29.216331    31.007008    -28.175978    4.222450    -107.380775    73.378044    61.906067    5.077196    -40.939266    34.865993    0.000000    0.000000    0.000000    -38.585461    -41.589298    -30.811382    66.170235    65.511139    -56.432529    -10.156276    -24.340916    -12.811672    0.000000    0.000000    0.000000    
-8.958167    124.367485    -79.008308    -1.493776    -0.166784    41.674183    -1.150213    4.998827    -2.152202    -8.785557    -0.818498    -0.793993    11.797274    -5.096839    -6.650217    9.538833    2.959447    -8.109408    9.533265    3.869793    -24.850023    -24.247910    17.753712    -71.700043    -14.353545    -4.956569    -83.125908    15.143099    -18.488552    -7.568659    -14.190915    -8.260649    -1.568246    24.591335    -28.066370    67.523537    -8.061539    -8.295074    43.472389    -12.601207    -8.371625    29.208050    31.024557    -28.180696    4.227404    -107.276985    73.402863    61.875912    5.078282    -40.930973    34.858620    0.000000    0.000000    0.000000    -38.505558    -41.616795    -30.789423    66.066528    65.506119    -56.325466    -10.184101    -24.280127    -12.870153    0.000000    0.000000    0.000000    
-8.965863    124.409714    -78.970718    -1.533067    -0.177892    41.674828    -1.145832    4.954745    -2.169483    -8.782850    -0.795717    -0.797732    11.804690    -5.108493    -6.644808    9.520782    2.986940    -8.110821    9.540435    3.870768    -24.846388    -24.301561    17.747133    -71.690674    -14.375713    -4.922805    -83.107338    15.111887    -18.466169    -7.541075    -14.170309    -8.243752    -1.567646    24.568316    -28.051914    67.529526    -8.061054    -8.315277    43.480061    -12.578237    -8.386031    29.213333    31.050102    -28.179003    4.219138    -107.133705    73.425804    61.820740    5.026312    -40.915268    34.780735    0.000000    0.000000    0.000000    -38.417484    -41.625729    -30.769001    65.935905    65.502113    -56.222321    -10.196392    -24.236168    -12.877493    0.000000    0.000000    0.000000    
-8.970931    124.458290    -78.941086    -1.558420    -0.190842    41.683273    -1.149997    4.927405    -2.192812    -8.764744    -0.776016    -0.803908    11.748653    -5.097331    -6.645542    9.579334    2.964016    -8.090704    9.524262    3.864127    -24.830860    -24.323141    17.760565    -71.697968    -14.409840    -4.920781    -83.097183    15.147126    -18.488077    -7.496471    -14.183521    -8.224617    -1.562512    24.563797    -28.047737    67.531433    -8.060512    -8.331144    43.494888    -12.608149    -8.408155    29.208937    31.061689    -28.173157    4.179505    -106.949341    73.428917    61.706787    4.956114    -40.893490    34.716972    0.000000    0.000000    0.000000    -38.335617    -41.621788    -30.747591    65.792831    65.494598    -56.114769    -10.227005    -24.186575    -12.915865    0.000000    0.000000    0.000000    
-8.975734    124.513992    -78.907822    -1.572786    -0.206585    41.689163    -1.154358    4.918201    -2.210636    -8.774043    -0.775772    -0.809891    11.704374    -5.106229    -6.655476    9.652784    2.981858    -8.086258    9.538573    3.860624    -24.837917    -24.363098    17.778357    -71.680557    -14.434945    -4.919235    -83.101990    15.147896    -18.505390    -7.465659    -14.175790    -8.214279    -1.554593    24.583817    -28.038612    67.525490    -8.050241    -8.327329    43.525513    -12.564097    -8.392771    29.194271    31.074566    -28.144924    4.148132    -106.703979    73.451088    61.490231    4.870980    -40.891487    34.643993    0.000000    0.000000    0.000000    -38.260403    -41.601379    -30.697475    65.672241    65.459297    -55.982845    -10.238523    -24.131382    -12.968013    0.000000    0.000000    0.000000    
-8.981897    124.582550    -78.878036    -1.577914    -0.223911    41.700382    -1.165364    4.924469    -2.233033    -8.781845    -0.788478    -0.818590    11.688311    -5.081172    -6.656896    9.687889    2.948783    -8.075140    9.553212    3.874604    -24.831467    -24.309540    17.827278    -71.709335    -14.398223    -5.023963    -83.116013    15.120249    -18.569677    -7.426586    -14.165504    -8.211884    -1.548835    24.570925    -28.005278    67.513771    -8.011134    -8.404038    43.528133    -12.626540    -8.481529    29.026794    31.076599    -28.108721    4.097118    -106.392441    73.468163    61.172676    4.805819    -40.870529    34.600994    0.000000    0.000000    0.000000    -38.180107    -41.568016    -30.648470    65.511284    65.432945    -55.852005    -10.245463    -24.089756    -12.980806    0.000000    0.000000    0.000000    
-8.986602    124.657318    -78.843048    -1.576614    -0.247023    41.712582    -1.186669    4.927464    -2.243420    -8.776954    -0.784158    -0.821940    11.648198    -5.073287    -6.667270    9.757475    2.930530    -8.067616    9.563354    3.868788    -24.845367    -24.321531    17.840521    -71.702911    -14.382442    -5.032403    -83.104607    15.014174    -18.553324    -7.413677    -14.165096    -8.224709    -1.550806    24.544203    -27.957638    67.478828    -8.030152    -8.445025    43.548981    -12.613332    -8.508709    29.017126    31.079102    -28.052996    4.061762    -106.022446    73.494110    60.784775    4.819967    -40.823227    34.605465    0.000000    0.000000    0.000000    -38.090195    -41.523228    -30.600721    65.314735    65.415863    -55.652260    -10.246984    -24.043653    -13.017748    0.000000    0.000000    0.000000    
-8.987299    124.742233    -78.810349    -1.563974    -0.272662    41.717632    -1.209063    4.935439    -2.250905    -8.780406    -0.773795    -0.824015    11.631117    -5.074435    -6.677699    9.788216    2.923729    -8.071114    9.581977    3.872732    -24.840700    -24.295078    17.856363    -71.727341    -14.407671    -5.086158    -83.113029    15.036006    -18.625580    -7.382450    -14.148991    -8.225578    -1.561834    24.496424    -27.904919    67.465233    -8.090647    -8.496303    43.544674    -12.560624    -8.519529    28.990681    31.075212    -27.970724    4.037576    -105.589653    73.523819    60.326866    4.811572    -40.790604    34.595127    0.000000    0.000000    0.000000    -37.993084    -41.471737    -30.534388    65.093536    65.395126    -55.456623    -10.228629    -24.000565    -13.030938    0.000000    0.000000    0.000000    
-8.984022    124.835030    -78.784065    -1.544178    -0.292262    41.724117    -1.242103    4.946792    -2.261077    -8.777289    -0.782491    -0.828562    11.644511    -5.067616    -6.677976    9.763093    2.923783    -8.076261    9.587729    3.893323    -24.837824    -24.314934    17.834112    -71.736679    -14.482192    -5.047871    -83.086914    15.112926    -18.653156    -7.386499    -14.141300    -8.178462    -1.558024    24.525850    -27.936344    67.494377    -8.093526    -8.461464    43.543186    -12.552958    -8.483952    29.010365    31.051313    -27.876713    4.012555    -105.083221    73.558922    59.774891    4.812870    -40.784164    34.611004    0.000000    0.000000    0.000000    -37.912571    -41.411674    -30.445980    64.895058    65.344414    -55.285522    -10.206785    -23.961302    -13.030112    0.000000    0.000000    0.000000    
-8.984197    124.934296    -78.768005    -1.534104    -0.296857    41.729645    -1.270796    4.944335    -2.262929    -8.792016    -0.786846    -0.830047    11.688268    -5.076104    -6.673598    9.713377    2.915030    -8.086217    9.602981    3.906377    -24.844133    -24.310808    17.811577    -71.751030    -14.516169    -5.011381    -83.058784    15.178582    -18.645590    -7.384018    -14.125635    -8.185202    -1.577516    24.591398    -27.941580    67.529320    -8.050797    -8.423452    43.558247    -12.563787    -8.469234    29.051170    31.022572    -27.792847    4.021211    -104.545639    73.603745    59.227623    4.839238    -40.773941    34.628105    0.000000    0.000000    0.000000    -37.843338    -41.369965    -30.387924    64.656685    65.302467    -55.056858    -10.186159    -23.892292    -13.045871    0.000000    0.000000    0.000000    
-8.979594    125.048515    -78.753578    -1.526458    -0.297661    41.733974    -1.319493    4.936928    -2.259983    -8.755370    -0.800215    -0.830494    11.672331    -5.053985    -6.669409    9.712865    2.865030    -8.072269    9.574665    3.922710    -24.846064    -24.302858    17.797863    -71.764175    -14.549172    -4.963476    -83.029633    15.210670    -18.624422    -7.385909    -14.155254    -8.191827    -1.589687    24.621754    -27.899218    67.525436    -8.122317    -8.367889    43.588310    -12.547354    -8.398649    29.224533    30.979424    -27.696667    4.046079    -103.920525    73.668930    58.627705    4.882734    -40.768559    34.642357    0.000000    0.000000    0.000000    -37.764297    -41.325977    -30.340885    64.361092    65.272804    -54.794498    -10.152619    -23.821535    -13.050037    0.000000    0.000000    0.000000    
-8.973076    125.184128    -78.747269    -1.519869    -0.296667    41.741619    -1.354418    4.932755    -2.248177    -8.751506    -0.817669    -0.828371    11.677374    -5.033838    -6.692750    9.716088    2.816487    -8.091093    9.572024    3.932379    -24.886154    -24.331427    17.747719    -71.739250    -14.601696    -4.863099    -82.989700    15.163351    -18.568485    -7.431746    -14.152543    -8.198194    -1.624665    24.635784    -27.861872    67.528297    -8.113614    -8.383378    43.618969    -12.573759    -8.419363    29.201761    30.922554    -27.590729    4.071164    -103.159012    73.735001    57.890862    4.917305    -40.772282    34.665760    0.000000    0.000000    0.000000    -37.678329    -41.269985    -30.303629    63.985291    65.233719    -54.470348    -10.113127    -23.749212    -13.028739    0.000000    0.000000    0.000000    
